<svg width="7" height="22" viewBox="0 0 7 22" fill="none" xmlns="http://www.w3.org/2000/svg">
<path d="M2.18182 15.9999C2.18182 15.3974 1.6934 14.909 1.09091 14.909C0.488417 14.909 0 15.3974 0 15.9999C0 16.6024 0.488417 17.0908 1.09091 17.0908C1.6934 17.0908 2.18182 16.6024 2.18182 15.9999Z" fill="#8C8C8C"/>
<path d="M2.18182 20.9091C2.18182 20.3066 1.6934 19.8182 1.09091 19.8182C0.488417 19.8182 0 20.3066 0 20.9091C0 21.5116 0.488417 22 1.09091 22C1.6934 22 2.18182 21.5116 2.18182 20.9091Z" fill="#8C8C8C"/>
<path d="M2.18182 11.091C2.18182 10.4885 1.6934 10.0001 1.09091 10.0001C0.488417 10.0001 0 10.4885 0 11.091C0 11.6935 0.488417 12.1819 1.09091 12.1819C1.6934 12.1819 2.18182 11.6935 2.18182 11.091Z" fill="#8C8C8C"/>
<path d="M6.18182 15.9999C6.18182 15.3974 5.6934 14.909 5.09091 14.909C4.48842 14.909 4 15.3974 4 15.9999C4 16.6024 4.48842 17.0908 5.09091 17.0908C5.6934 17.0908 6.18182 16.6024 6.18182 15.9999Z" fill="#8C8C8C"/>
<path d="M6.18182 20.9091C6.18182 20.3066 5.6934 19.8182 5.09091 19.8182C4.48842 19.8182 4 20.3066 4 20.9091C4 21.5116 4.48842 22 5.09091 22C5.6934 22 6.18182 21.5116 6.18182 20.9091Z" fill="#8C8C8C"/>
<path d="M6.18182 11.091C6.18182 10.4885 5.6934 10.0001 5.09091 10.0001C4.48842 10.0001 4 10.4885 4 11.091C4 11.6935 4.48842 12.1819 5.09091 12.1819C5.6934 12.1819 6.18182 11.6935 6.18182 11.091Z" fill="#8C8C8C"/>
<path d="M6.18182 5.99991C6.18182 5.39742 5.6934 4.909 5.09091 4.909C4.48842 4.909 4 5.39742 4 5.99991C4 6.6024 4.48842 7.09082 5.09091 7.09082C5.6934 7.09082 6.18182 6.6024 6.18182 5.99991Z" fill="#8C8C8C"/>
<path d="M6.18182 10.9091C6.18182 10.3066 5.6934 9.81818 5.09091 9.81818C4.48842 9.81818 4 10.3066 4 10.9091C4 11.5116 4.48842 12 5.09091 12C5.6934 12 6.18182 11.5116 6.18182 10.9091Z" fill="#8C8C8C"/>
<path d="M6.18182 1.09098C6.18182 0.488484 5.6934 6.69956e-05 5.09091 6.69956e-05C4.48842 6.69956e-05 4 0.488484 4 1.09098C4 1.69347 4.48842 2.18188 5.09091 2.18188C5.6934 2.18188 6.18182 1.69347 6.18182 1.09098Z" fill="#8C8C8C"/>
<path d="M2.18182 5.99991C2.18182 5.39742 1.6934 4.909 1.09091 4.909C0.488417 4.909 0 5.39742 0 5.99991C0 6.6024 0.488417 7.09082 1.09091 7.09082C1.6934 7.09082 2.18182 6.6024 2.18182 5.99991Z" fill="#8C8C8C"/>
<path d="M2.18182 10.9091C2.18182 10.3066 1.6934 9.81818 1.09091 9.81818C0.488417 9.81818 0 10.3066 0 10.9091C0 11.5116 0.488417 12 1.09091 12C1.6934 12 2.18182 11.5116 2.18182 10.9091Z" fill="#8C8C8C"/>
<path d="M2.18182 1.09098C2.18182 0.488484 1.6934 6.69956e-05 1.09091 6.69956e-05C0.488417 6.69956e-05 0 0.488484 0 1.09098C0 1.69347 0.488417 2.18188 1.09091 2.18188C1.6934 2.18188 2.18182 1.69347 2.18182 1.09098Z" fill="#8C8C8C"/>
</svg>
