<svg width="22" height="8" viewBox="0 0 22 8" fill="none" xmlns="http://www.w3.org/2000/svg">
<g clip-path="url(#clip0)">
<path d="M15.9999 4.81818C15.3974 4.81818 14.909 5.3066 14.909 5.90909C14.909 6.51158 15.3974 7 15.9999 7C16.6024 7 17.0908 6.51158 17.0908 5.90909C17.0908 5.3066 16.6024 4.81818 15.9999 4.81818Z" fill="#8C8C8C"/>
<path d="M20.9091 4.81818C20.3066 4.81818 19.8182 5.3066 19.8182 5.90909C19.8182 6.51158 20.3066 7 20.9091 7C21.5116 7 22 6.51158 22 5.90909C22 5.3066 21.5116 4.81818 20.9091 4.81818Z" fill="#8C8C8C"/>
<path d="M11.0907 4.81818C10.4882 4.81818 9.99982 5.3066 9.99982 5.90909C9.99982 6.51158 10.4882 7 11.0907 7C11.6932 7 12.1816 6.51158 12.1816 5.90909C12.1816 5.3066 11.6932 4.81818 11.0907 4.81818Z" fill="#8C8C8C"/>
<path d="M15.9999 0.818182C15.3974 0.818182 14.909 1.3066 14.909 1.90909C14.909 2.51158 15.3974 3 15.9999 3C16.6024 3 17.0908 2.51158 17.0908 1.90909C17.0908 1.3066 16.6024 0.818182 15.9999 0.818182Z" fill="#8C8C8C"/>
<path d="M20.9091 0.818182C20.3066 0.818182 19.8182 1.3066 19.8182 1.90909C19.8182 2.51158 20.3066 3 20.9091 3C21.5116 3 22 2.51158 22 1.90909C22 1.3066 21.5116 0.818182 20.9091 0.818182Z" fill="#8C8C8C"/>
<path d="M11.0907 0.818182C10.4882 0.818182 9.99982 1.3066 9.99982 1.90909C9.99982 2.51158 10.4882 3 11.0907 3C11.6932 3 12.1816 2.51158 12.1816 1.90909C12.1816 1.3066 11.6932 0.818182 11.0907 0.818182Z" fill="#8C8C8C"/>
<path d="M5.99991 0.818182C5.39742 0.818182 4.909 1.3066 4.909 1.90909C4.909 2.51158 5.39742 3 5.99991 3C6.6024 3 7.09082 2.51158 7.09082 1.90909C7.09082 1.3066 6.6024 0.818182 5.99991 0.818182Z" fill="#8C8C8C"/>
<path d="M10.9091 0.818182C10.3066 0.818182 9.81818 1.3066 9.81818 1.90909C9.81818 2.51158 10.3066 3 10.9091 3C11.5116 3 12 2.51158 12 1.90909C12 1.3066 11.5116 0.818182 10.9091 0.818182Z" fill="#8C8C8C"/>
<path d="M1.09073 0.818182C0.488239 0.818182 -0.000177293 1.3066 -0.00017724 1.90909C-0.000177188 2.51158 0.488239 3 1.09073 3C1.69322 3 2.18164 2.51158 2.18164 1.90909C2.18164 1.3066 1.69322 0.818182 1.09073 0.818182Z" fill="#8C8C8C"/>
<path d="M5.99991 4.81818C5.39742 4.81818 4.909 5.3066 4.909 5.90909C4.909 6.51158 5.39742 7 5.99991 7C6.6024 7 7.09082 6.51158 7.09082 5.90909C7.09082 5.3066 6.6024 4.81818 5.99991 4.81818Z" fill="#8C8C8C"/>
<path d="M10.9091 4.81818C10.3066 4.81818 9.81818 5.3066 9.81818 5.90909C9.81818 6.51158 10.3066 7 10.9091 7C11.5116 7 12 6.51158 12 5.90909C12 5.3066 11.5116 4.81818 10.9091 4.81818Z" fill="#8C8C8C"/>
<path d="M1.09073 4.81818C0.488239 4.81818 -0.000177293 5.3066 -0.00017724 5.90909C-0.000177188 6.51158 0.488239 7 1.09073 7C1.69322 7 2.18164 6.51158 2.18164 5.90909C2.18164 5.3066 1.69322 4.81818 1.09073 4.81818Z" fill="#8C8C8C"/>
</g>
<defs>
<clipPath id="clip0">
<rect width="22" height="8" fill="white" transform="translate(22 8) rotate(180)"/>
</clipPath>
</defs>
</svg>
