<svg width="32" height="32" viewBox="0 0 32 32" fill="none" xmlns="http://www.w3.org/2000/svg">
<path d="M30.5629 12.876C30.0006 15.2189 28.6739 17.9128 26.6946 20.5851C25.7136 21.8978 24.6393 23.1419 23.4795 24.3081C20.8489 26.9364 18.0379 28.9075 15.4518 30.0901C19.8819 30.0901 23.8842 28.1846 26.6946 25.2061C29.7103 22.0084 31.3266 17.5409 30.5629 12.876Z" fill="white"/>
<path d="M26.6945 15.942C29.3062 12.1973 31.1919 8.41129 31.7771 5.36386C31.8992 4.72759 31.9737 4.08353 32 3.43675V3.21767C31.9778 1.75037 31.4835 0.698918 30.1817 0.173522C29.2826 -0.11115 28.0939 -0.0455573 26.6958 0.370299C25.5718 0.721219 24.3131 1.31221 22.9413 2.14458C16.5778 -1.44793 8.43635 0.0200353 3.82653 5.27662C-0.0633675 9.39518 -1.14292 16.0955 1.30779 21.1546L1.33069 21.133C0.320504 18.7454 0.253158 15.898 0.8357 13.336C0.938031 12.8149 1.08031 12.3021 1.26133 11.8018C1.30577 11.6706 1.3509 11.5604 1.39602 11.4292C1.4947 11.1721 1.61569 10.9237 1.75766 10.6867C3.35444 7.40116 6.18768 5.49636 8.32389 6.45991C10.4372 7.42347 10.9322 10.6644 9.35832 14.2346C8.90845 15.1529 7.85179 17.1253 6.61465 19.2282C3.53425 24.4408 0.948167 31.2316 5.40242 31.9741C6.77426 32.1053 8.32591 31.7334 9.98935 30.9666C15.6094 28.7542 22.1978 22.4028 26.6945 15.942ZM26.6945 1.53129C29.4153 0.765166 30.4053 2.42925 28.2913 7.05024C27.8483 6.31014 27.3119 5.62702 26.6945 5.01688C25.9079 4.20681 24.9859 3.48398 23.9744 2.7395C25.0088 2.14458 25.9099 1.72872 26.6945 1.53129Z" fill="white"/>
</svg>
