<?xml version="1.0" encoding="utf-8"?>
<!-- Generator: Adobe Illustrator 19.0.0, SVG Export Plug-In . SVG Version: 6.00 Build 0)  -->
<svg version="1.1" id="Layer_1" xmlns="http://www.w3.org/2000/svg" xmlns:xlink="http://www.w3.org/1999/xlink" x="0px" y="0px"
	 viewBox="-1 3 28 28" style="enable-background:new -1 3 28 28;" xml:space="preserve">
<style type="text/css">
	.st0{fill:#FFFFFF;}
</style>
<path class="st0" d="M21,16.2v-1.9c0-2.1-0.8-4-2.3-5.5c-1.5-1.5-3.4-2.3-5.5-2.3c-2.1,0-4,0.8-5.5,2.3c-1.5,1.5-2.3,3.4-2.3,5.5
	v1.9c0,0.6-0.2,1.2-0.4,1.7c-0.3,0.5-0.6,1-1.1,1.4C3.1,20,2.6,21,2.5,22.1c0,2.4,4,3.9,10.7,3.9c6.7,0,10.7-1.5,10.7-3.9
	c-0.1-1.1-0.6-2-1.4-2.7c-0.5-0.4-0.8-0.9-1.1-1.4C21.1,17.4,21,16.8,21,16.2z"/>
<path class="st0" d="M10.4,26.6c0.2,0.6,0.6,1.1,1.1,1.5c0.5,0.4,1.1,0.6,1.7,0.6c0.6,0,1.2-0.2,1.7-0.6c0.5-0.4,0.9-0.9,1.1-1.5
	c-0.9,0.1-1.8,0.1-2.8,0.1C12.2,26.7,11.3,26.7,10.4,26.6z"/>
</svg>
