<svg width="16" height="18" viewBox="0 0 16 18" fill="none" xmlns="http://www.w3.org/2000/svg">
<path d="M15.905 7C15.611 8.36283 14.925 9.93805 13.8797 11.4779C13.3898 12.2212 12.8181 12.9469 12.1975 13.6372C10.8255 15.1593 9.35561 16.3097 8 17C10.3192 17 12.4098 15.885 13.8797 14.1504C15.4477 12.3274 16.297 9.72566 15.905 7Z" fill="#155592"/>
<path d="M13.3466 8.95524C14.6577 6.85124 15.5942 4.71302 15.8907 3.00245C15.9532 2.60901 15.9844 2.23269 16 1.92478V1.80504C15.9844 0.983968 15.7347 0.385268 15.0947 0.0944703C14.6421 -0.0594813 14.049 -0.0252698 13.3466 0.197105C12.7848 0.402374 12.1604 0.727382 11.4737 1.18924C8.28966 -0.829239 4.21597 0.00894132 1.9216 2.95113C-0.0293968 5.27751 -0.575676 9.04077 0.657354 11.8803L0.672962 11.8632C0.157899 10.529 0.126683 8.93814 0.423235 7.48415C0.470059 7.19335 0.548099 6.91966 0.641746 6.62886C0.657354 6.56044 0.68857 6.49201 0.704178 6.42359C0.76661 6.25253 0.829042 6.11569 0.891474 6.01305C1.68748 4.16564 3.10781 3.08797 4.16915 3.63536C5.23049 4.18274 5.48022 5.99595 4.68421 8.01443C4.4657 8.5276 3.93503 9.63947 3.31071 10.8198C1.76552 13.7448 0.485667 17.5765 2.702 17.9871C3.38875 18.0555 4.16915 17.8502 4.99637 17.4226C7.80581 16.1568 11.0991 12.5988 13.3466 8.95524ZM13.3466 0.847123C14.7045 0.419479 15.204 1.36029 14.1427 3.94326C13.9241 3.51562 13.6432 3.13929 13.3466 2.79718C12.9564 2.33532 12.4882 1.94189 11.9887 1.51425C12.5038 1.20634 12.9564 0.966863 13.3466 0.847123Z" fill="#155592"/>
</svg>
